<svg width="20" height="20" viewBox="0 0 20 20" fill="none" xmlns="http://www.w3.org/2000/svg">
<g id="game-icons:graduate-cap">
<path id="Vector" d="M10 3L0 6.7501L10 11.7501L14.7629 9.36865L10.2948 8.00257C10.2027 8.04669 10.102 8.06971 10 8.06993C9.81828 8.06993 9.644 7.99774 9.5155 7.86925C9.387 7.74075 9.31482 7.56647 9.31482 7.38475C9.31482 7.20303 9.387 7.02875 9.5155 6.90025C9.644 6.77175 9.81828 6.69956 10 6.69956L9.88669 7.06794L10.6805 7.31216C10.6806 7.31296 10.6807 7.31376 10.6809 7.31456L11.8523 7.67278L18.522 9.72486V10.245C18.4297 10.3078 18.3542 10.3921 18.302 10.4907C18.2497 10.5893 18.2223 10.6991 18.2222 10.8107C18.2223 10.9248 18.251 11.0371 18.3055 11.1374C18.36 11.2377 18.4388 11.3227 18.5345 11.3848C18.2226 12.5635 18.2222 15.2379 18.2222 16.2921C18.9074 16.7373 18.9074 16.7536 19.5926 16.2921C19.5926 15.2381 19.5922 12.5642 19.2804 11.3852C19.3762 11.323 19.4549 11.2379 19.5094 11.1376C19.564 11.0372 19.5925 10.9249 19.5926 10.8107C19.5926 10.699 19.5652 10.589 19.513 10.4902C19.4607 10.3915 19.3852 10.3071 19.2928 10.2442V9.15565L16.7523 8.37398L20 6.7501L10 3ZM4.15979 9.82571L3.59781 13.1977C4.71873 13.3443 6.05959 13.9958 7.29224 14.7662C7.99327 15.2044 8.64989 15.6853 9.18318 16.152C9.50915 16.4372 9.78173 16.7108 10 16.9801C10.2183 16.7108 10.4908 16.4372 10.8168 16.152C11.3501 15.6853 12.0067 15.2044 12.7078 14.7662C13.9404 13.9958 15.2813 13.3443 16.4022 13.1977L15.8401 9.82571H15.5725L10 12.612L4.42744 9.82571H4.15979Z" fill="white"/>
</g>
</svg>
