<svg width="48" height="48" viewBox="0 0 48 48" fill="none" xmlns="http://www.w3.org/2000/svg">
<path d="M30 21C30 22.5913 29.3679 24.1174 28.2426 25.2426C27.1174 26.3679 25.5913 27 24 27C22.4087 27 20.8826 26.3679 19.7574 25.2426C18.6321 24.1174 18 22.5913 18 21C18 19.4087 18.6321 17.8826 19.7574 16.7574C20.8826 15.6321 22.4087 15 24 15C25.5913 15 27.1174 15.6321 28.2426 16.7574C29.3679 17.8826 30 19.4087 30 21V21Z" stroke="white" stroke-width="2.5" stroke-linecap="round" stroke-linejoin="round"/>
<path d="M39 21C39 35.284 24 43.5 24 43.5C24 43.5 9 35.284 9 21C9 17.0218 10.5804 13.2064 13.3934 10.3934C16.2064 7.58035 20.0218 6 24 6C27.9782 6 31.7936 7.58035 34.6066 10.3934C37.4196 13.2064 39 17.0218 39 21V21Z" stroke="white" stroke-width="2.5" stroke-linecap="round" stroke-linejoin="round"/>
</svg>
