<svg width="40" height="40" viewBox="0 0 40 40" fill="none" xmlns="http://www.w3.org/2000/svg">
<path d="M21.2005 3.3833C18.8162 3.20974 16.4226 3.55158 14.1822 4.38557C11.9419 5.21956 9.90737 6.52615 8.21701 8.21652C6.52664 9.90689 5.22005 11.9414 4.38606 14.1817C3.55207 16.4221 3.21023 18.8157 3.38379 21.2C3.98379 30.0166 11.6838 36.6666 20.5171 36.6666H26.6671C27.5838 36.6666 28.3338 35.9166 28.3338 35C28.3338 34.0833 27.5838 33.3333 26.6671 33.3333H20.5505C14.3338 33.3333 8.63379 29.3 7.08379 23.2833C4.60046 13.6166 13.6005 4.59997 23.2671 7.09997C29.3005 8.6333 33.3338 14.3333 33.3338 20.55V22.3833C33.3338 23.7 32.1505 25 30.8338 25C29.5171 25 28.3338 23.7 28.3338 22.3833V20.3C28.3338 16.1166 25.3671 12.35 21.2338 11.7666C19.9187 11.5711 18.576 11.6925 17.3173 12.1208C16.0587 12.5491 14.9205 13.2719 13.9977 14.229C13.0748 15.1861 12.394 16.3498 12.0118 17.6232C11.6296 18.8966 11.5572 20.2429 11.8005 21.55C12.0928 23.1249 12.8332 24.5821 13.9329 25.7469C15.0326 26.9116 16.4449 27.7344 18.0005 28.1166C21.0671 28.8333 23.9838 27.85 25.9005 25.9C27.3838 27.9333 30.3505 29 33.0671 27.9166C35.3005 27.0333 36.6671 24.75 36.6671 22.35V20.5333C36.6671 11.6833 30.0171 3.9833 21.2005 3.3833ZM20.0005 25C17.2338 25 15.0005 22.7666 15.0005 20C15.0005 17.2333 17.2338 15 20.0005 15C22.7671 15 25.0005 17.2333 25.0005 20C25.0005 22.7666 22.7671 25 20.0005 25Z" fill="white"/>
</svg>
