<svg width="120" height="120" viewBox="0 0 120 120" fill="none" xmlns="http://www.w3.org/2000/svg">
<path d="M47.5 77.92V42.08C47.5007 41.6316 47.6221 41.1916 47.8513 40.8062C48.0805 40.4208 48.4092 40.1042 48.8029 39.8894C49.1965 39.6747 49.6407 39.5698 50.0888 39.5857C50.537 39.6017 50.9726 39.7379 51.35 39.98L79.23 57.895C79.583 58.1212 79.8735 58.4325 80.0747 58.8004C80.2759 59.1682 80.3813 59.5807 80.3813 60C80.3813 60.4193 80.2759 60.8318 80.0747 61.1996C79.8735 61.5675 79.583 61.8788 79.23 62.105L51.35 80.025C50.9726 80.2672 50.537 80.4033 50.0888 80.4193C49.6407 80.4352 49.1965 80.3303 48.8029 80.1156C48.4092 79.9009 48.0805 79.5842 47.8513 79.1988C47.6221 78.8134 47.5007 78.3734 47.5 77.925V77.92Z" fill="white"/>
<path d="M5 60C5 29.625 29.625 5 60 5C90.375 5 115 29.625 115 60C115 90.375 90.375 115 60 115C29.625 115 5 90.375 5 60ZM60 12.5C47.4022 12.5 35.3204 17.5044 26.4124 26.4124C17.5044 35.3204 12.5 47.4022 12.5 60C12.5 72.5978 17.5044 84.6796 26.4124 93.5876C35.3204 102.496 47.4022 107.5 60 107.5C72.5978 107.5 84.6796 102.496 93.5876 93.5876C102.496 84.6796 107.5 72.5978 107.5 60C107.5 47.4022 102.496 35.3204 93.5876 26.4124C84.6796 17.5044 72.5978 12.5 60 12.5Z" fill="white"/>
</svg>
